<svg xmlns="http://www.w3.org/2000/svg" xmlns:xlink="http://www.w3.org/1999/xlink" aria-hidden="true" role="img" class="component-iconify MuiBox-root css-1jfikwp iconify iconify--eva" width="1em" height="1em" viewBox="0 0 24 24"><g id="iconifyReact3896"><g id="iconifyReact3897"><g id="iconifyReact3898" fill="currentColor"><path d="M15.15 8.4a5.83 5.83 0 0 0-5.85 5.82v5.88a.9.9 0 0 0 .9.9h2.1a.9.9 0 0 0 .9-.9v-5.88a1.94 1.94 0 0 1 2.15-1.93a2 2 0 0 1 1.75 2v5.81a.9.9 0 0 0 .9.9h2.1a.9.9 0 0 0 .9-.9v-5.88a5.83 5.83 0 0 0-5.85-5.82Z"></path><rect width="4.5" height="11.7" x="3" y="9.3" rx=".9" ry=".9"></rect><circle cx="5.25" cy="5.25" r="2.25"></circle></g></g></g></svg>